<?xml version="1.0" encoding="UTF-8" standalone="no"?>
<!-- Generator: Adobe Illustrator 25.2.3, SVG Export Plug-In . SVG Version: 6.00 Build 0)  -->

<svg
   version="1.1"
   id="Layer_1"
   x="0px"
   y="0px"
   viewBox="0 0 1638400 20736"
   xml:space="preserve"
   width="1638400"
   height="20736"
   xmlns="http://www.w3.org/2000/svg"
   xmlns:svg="http://www.w3.org/2000/svg"><defs
   id="defs12" />
<style
   type="text/css"
   id="style1">
	.st0{fill:#6CAEDF;}
	.st1{fill:#FFFFFF;}
	.st2{fill:#0A2059;}
	.st3{fill:url(#SVGID_1_);}
	
</style>
<g
   id="g12"
   style="fill:#000000;fill-opacity:1">
	<g
   id="g11"
   style="fill:#000000;fill-opacity:1">
		<g
   id="g10"
   style="fill:#000000;fill-opacity:1">
			<g
   id="g9"
   style="fill:#000000;fill-opacity:1">
				<path
   d="M 106.3,32.12 131.98,31.91 88.01,132.14 52.63,132.43 7,32.94 32.68,32.73 70.19,116.46 Z"
   id="path1"
   style="fill:#000000;fill-opacity:1" />
				<path
   d="m 240.72,103.2 c 0.12,14.41 -10.93,23.92 -27.02,27.9 -8.12,1.92 -17.67,3 -28.66,3.09 -22.11,0.18 -38.26,-3.11 -48.47,-12.3 -5.04,-4.67 -7.65,-10.49 -7.71,-17.77 -0.09,-10.98 5.84,-18.6 17.78,-22.83 -9.17,-4.35 -13.79,-11.44 -13.87,-21 -0.18,-22.4 22.86,-30.72 51.4,-30.96 28.53,-0.24 51.71,7.71 51.9,30.11 0.08,9.56 -4.43,16.73 -13.52,21.23 12.02,4.03 18.07,11.55 18.17,22.53 z m -55.86,9.31 c 20.69,-0.17 30.93,-3.97 30.87,-11.24 -0.06,-7.56 -10.37,-11.19 -31.05,-11.02 -20.69,0.17 -30.93,3.97 -30.87,11.53 0.06,7.28 10.36,10.9 31.05,10.73 z M 156.34,62.24 c 0.06,7.56 9.51,11.19 28.2,11.04 17.83,-0.15 26.65,-3.93 26.59,-11.49 -0.06,-7.42 -10.65,-10.9 -26.77,-10.76 -16.98,0.13 -28.08,3.79 -28.02,11.21 z"
   id="path2"
   style="fill:#000000;fill-opacity:1" />
				<path
   d="m 377.51,29.87 0.18,21.54 -43.09,0.36 0.65,78.32 -24.54,0.2 -0.65,-78.32 -43.09,0.36 -0.18,-21.54 z"
   id="path3"
   style="fill:#000000;fill-opacity:1" />
				<path
   d="M 469.07,128.99 436.97,95.3 413,95.5 l 0.28,33.96 -24.54,0.2 -0.83,-99.87 54.78,-0.45 c 14.84,-0.12 25.84,1.79 34.73,6.56 8.89,4.78 13.67,13.58 13.77,26 0.13,15.69 -7.64,25.89 -23.44,30.44 l 34.83,36.38 z m -56.43,-77.86 0.19,22.83 28.82,-0.24 c 17.69,-0.15 24.66,-3.49 24.59,-11.62 -0.07,-8.13 -7.09,-11.35 -24.78,-11.21 z"
   id="path4"
   style="fill:#000000;fill-opacity:1" />
				<path
   d="m 603.6,127.88 -10.17,-21.32 -59.35,0.49 -9.81,21.48 -25.68,0.21 46.82,-100.26 35.38,-0.29 48.48,99.47 z m -60.27,-41.17 40.52,-0.34 -20.62,-43.2 z"
   id="path5"
   style="fill:#000000;fill-opacity:1" />
				<path
   d="m 691.37,27.27 c 42.51,-0.35 63.91,16.16 64.19,49.55 0.27,33.24 -20.85,49.97 -63.36,50.32 l -53.65,0.44 -0.83,-99.87 z m 0.93,78.33 c 26.68,-0.22 37.87,-9.87 37.72,-28.56 C 729.87,58.35 718.51,48.6 691.83,48.82 l -29.39,0.24 0.47,56.78 z"
   id="path6"
   style="fill:#000000;fill-opacity:1" />
				<path
   d="m 770.55,26.62 24.54,-0.2 0.83,99.87 -24.54,0.2 z"
   id="path7"
   style="fill:#000000;fill-opacity:1" />
				<path
   d="m 907.65,25.48 23.69,-0.2 0.83,99.87 -27.53,0.51 -59.08,-70.28 0.58,70.48 -23.69,0.2 -0.83,-99.87 31.1,-0.26 55.47,65.89 z"
   id="path8"
   style="fill:#000000;fill-opacity:1" />
				<path
   d="m 990.16,65.32 75.04,-0.62 0.43,52.22 c -13.49,7.1 -32.16,10.68 -55.7,10.88 -32.81,0.27 -62.48,-16.18 -62.78,-52.56 -0.15,-17.55 6.87,-31.87 18.36,-40.53 11.35,-8.66 26.43,-13.2 43.55,-13.34 20.4,-0.17 36.69,2.12 48.71,7.01 l 0.23,27.96 c -11.48,-8.61 -29.79,-13.45 -48.77,-13.29 -23.54,0.19 -37.27,12.15 -37.11,31.98 0.15,18.83 14.23,29.85 37.62,29.65 13.13,-0.11 23.68,-1.34 31.79,-3.83 l -0.12,-14.41 -51.07,0.42 z"
   id="path9"
   style="fill:#000000;fill-opacity:1" />
			</g>
		</g>
		<path
   d="m 1273,9.8 -1.52,10.41 c -14.42,0 -28.8,7.72 -37.76,20.18 -0.1,0.11 -0.17,0.23 -0.25,0.34 l -20.53,30.42 -11.85,17.6 c -15.49,22.94 -41.41,37.31 -67.36,37.31 h -50.43 l 1.54,-10.41 c 14.86,0 29.73,-8.22 38.6,-21.38 l 15.58,-23.11 16.78,-24.86 c 15.52,-22.47 41.15,-36.49 66.77,-36.49 H 1273 Z"
   id="path10"
   style="fill:#000000;fill-opacity:1" />
	</g>
</g>
<path
   style="fill:#000000;fill-opacity:1;stroke-width:1.47977"
   d="M 35.632763,93.60293 C 25.93136,72.234613 15.781021,49.896843 13.076451,43.96344 l -4.9173982,-10.788005 12.0794652,0.429624 12.079467,0.429623 18.900404,42.131105 18.900406,42.131103 4.251212,-9.57619 c 2.338166,-5.2669 10.533691,-24.379486 18.212278,-42.472401 l 13.961065,-32.896211 11.46821,-0.02865 c 6.30752,-0.01575 11.46821,0.468687 11.46821,1.076538 0,0.607851 -9.42526,22.582418 -20.94503,48.83237 l -20.945024,47.727194 -14.199482,0.0202 c -7.809715,0.0111 -15.531274,0.34747 -17.15902,0.74745 -2.604621,0.64001 -5.074845,-3.93194 -20.598451,-38.124255 z"
   id="path12" /><path
   style="fill:#ffffff;fill-opacity:1;stroke-width:73.9885"
   d="m 1084.5122,122.69978 c 0.494,-1.28737 0.8982,-3.28506 0.8982,-4.4393 0,-1.2435 1.4848,-2.09863 3.6439,-2.09863 6.1765,0 19.2185,-5.67838 25.6126,-11.15148 3.3469,-2.86481 14.873,-18.235682 25.6137,-34.157502 21.0966,-31.273389 28.9973,-40.295165 42.3312,-48.338099 16.2858,-9.823563 19.8901,-10.534143 56.3246,-11.104514 31.0401,-0.485923 32.9236,-0.361366 32.9022,2.175887 -0.037,4.438086 -1.864,5.889382 -8.7718,6.96915 -7.5707,1.183398 -19.1006,7.061707 -24.0547,12.26383 -1.8728,1.966637 -13.0633,17.667415 -24.8678,34.890617 -22.8989,33.410541 -30.6709,41.577861 -46.8612,49.244691 -14.5142,6.87311 -22.6483,8.08603 -54.2263,8.08603 -26.24,0 -29.3451,-0.25462 -28.5446,-2.34068 z"
   id="path19" /><path
   style="fill:#ffffff;fill-opacity:1;stroke-width:109.486"
   d="m 987.90049,124.27596 c -28.34338,-7.96807 -43.7019,-30.599527 -39.07944,-57.58527 4.55927,-26.616838 21.27929,-40.054442 55.32395,-44.462922 8.8417,-1.144923 35.4837,1.445981 45.381,4.413249 l 7.7688,2.329128 v 12.644022 c 0,6.954212 -0.4994,12.39317 -1.1098,12.086574 -28.281,-14.205057 -61.53736,-15.175865 -75.64325,-2.208149 -7.96207,7.319618 -11.23254,22.24208 -7.39532,33.74324 2.36377,7.084858 9.54073,14.162552 17.46137,17.219848 7.95808,3.07176 35.2797,3.39257 45.6003,0.53544 l 6.289,-1.74103 v -7.904848 -7.904847 l -25.8959,0.777543 -25.896,0.777543 V 76.422595 65.849711 h 36.9942 36.9942 v 25.118069 25.11807 l -4.1106,2.12567 c -9.2033,4.75923 -22.0776,7.04333 -43.242,7.67179 -16.2661,0.48301 -23.38795,0.0942 -29.44051,-1.60735 z"
   id="path20" /><path
   style="fill:#ffffff;fill-opacity:1;stroke-width:109.486"
   d="m 823.49133,111.96216 c 0,-7.19306 -0.43946,-29.167628 -0.97657,-48.832368 l -0.97657,-35.754069 h 15.60465 15.60464 l 27.17539,32.484116 c 14.94647,17.866264 27.78032,32.515975 28.51966,32.554914 0.79611,0.04193 0.93732,-13.505991 0.34629,-33.224002 l -0.99799,-33.294797 h 10.89874 10.89875 l 0.95541,14.427745 c 0.52547,7.935261 0.95885,30.242775 0.96306,49.572255 l 0.008,35.144506 h -13.1012 -13.10086 L 876.10136,90.265896 C 860.03511,71.139884 846.37962,55.491329 845.75583,55.491329 c -0.62379,0 -0.79994,15.648555 -0.39146,34.774567 l 0.74271,34.774564 H 834.7992 823.49133 Z"
   id="path21" /><path
   style="fill:#ffffff;fill-opacity:1;stroke-width:109.486"
   d="m 771.69595,76.578035 0.003,-49.202312 h 10.86588 10.86588 l 0.97227,24.652521 c 0.53475,13.558886 0.97227,35.482747 0.97227,48.719686 v 24.06717 l -11.84162,0.48262 -11.84163,0.48263 z"
   id="path22" /><path
   style="fill:#ffffff;fill-opacity:1;stroke-width:109.486"
   d="M 663.6763,77.342295 V 49.256022 l 22.56647,0.547391 c 20.75451,0.503439 23.09063,0.842883 29.09435,4.227481 9.00038,5.073961 12.32231,10.090539 13.1298,19.827833 0.87325,10.530224 -0.21254,14.484566 -5.69025,20.72333 -6.31434,7.191643 -14.64212,9.378033 -38.75355,10.174443 l -20.34682,0.67207 z"
   id="path23" /><path
   style="fill:#ffffff;fill-opacity:1;stroke-width:109.486"
   d="m 639.50674,125.53372 c -0.54258,-0.54258 -0.98651,-22.41613 -0.98651,-48.607876 V 29.304483 l 27.74567,-0.995724 c 44.31954,-1.590519 62.75302,2.11836 75.9075,15.272847 8.46214,8.462134 12.08236,18.320104 12.17799,33.161059 0.17752,27.547155 -14.5384,43.283175 -45.11802,48.245575 -10.25666,1.66443 -68.15473,2.11737 -69.72663,0.54548 z m 72.59408,-21.96587 c 8.90005,-2.64303 16.0509,-9.895232 17.52975,-17.77821 1.68755,-8.995373 0.006,-20.508424 -3.76994,-25.811196 -6.23347,-8.754105 -13.90064,-10.961245 -40.35774,-11.617741 L 662.19653,47.78239 v 29.010538 29.010542 h 21.18807 c 14.59263,0 23.53143,-0.69591 28.71622,-2.23562 z"
   id="path24" /><path
   style="fill:#ffffff;fill-opacity:1;stroke-width:109.486"
   d="m 389.41271,102.60671 c -0.53537,-14.780177 -0.9734,-37.137428 -0.9734,-49.682778 V 30.114207 l 38.10404,0.486904 c 36.40862,0.465239 38.45124,0.643523 45.90699,4.006865 13.34481,6.019941 19.32325,16.865152 17.55474,31.845275 -1.18884,10.070017 -6.54591,17.563148 -15.59415,21.81208 -4.07631,1.914183 -7.27479,3.911646 -7.10773,4.438805 0.90147,2.844669 32.57591,33.922804 33.48978,32.859314 0.59686,-0.69458 11.02041,-22.72422 23.16345,-48.954752 l 22.07825,-47.69188 17.0763,-0.03066 17.07628,-0.03066 23.25007,47.722544 c 12.78754,26.247398 23.24886,48.221968 23.24741,48.832368 -0.001,0.61041 -5.20153,1.10983 -11.5557,1.10983 h -11.55305 l -4.61591,-10.38873 -4.6159,-10.38874 -30.52797,0.4003 -30.52799,0.40029 -4.72503,10.69771 -4.72504,10.6977 -27.22948,0.0306 -27.22948,0.0306 -16.4237,-17.17318 -16.4237,-17.173173 -12.20809,1.086794 -12.20809,1.086794 V 112.6535 129.47977 H 401.25086 390.38611 Z M 583.6184,85.647862 c 0.32421,-0.278847 -3.98228,-10.163208 -9.56999,-21.965247 -5.58771,-11.80204 -10.64152,-20.970296 -11.23068,-20.373904 -1.08952,1.102899 -20.48247,42.797929 -20.48247,44.037518 0,0.758339 40.3571,-0.901932 41.28314,-1.698367 z M 455.00704,73.126717 c 3.6504,-0.841092 7.81225,-2.592758 9.24856,-3.892593 3.45429,-3.126096 3.37031,-11.11758 -0.15033,-14.30371 -4.19702,-3.798253 -19.68716,-5.732482 -36.82203,-4.597908 l -15.16763,1.004313 v 11.695753 11.695752 l 18.12716,-0.03618 c 9.96995,-0.0199 21.11387,-0.724341 24.76427,-1.565432 z"
   id="path25" /><path
   style="fill:#ffffff;fill-opacity:1;stroke-width:109.486"
   d="M 311.49133,90.265896 V 51.052023 H 289.2948 267.09827 v -9.381551 -9.38155 l 36.62427,-0.973625 c 20.14336,-0.535494 44.78151,-0.975068 54.75145,-0.976831 l 18.12717,-0.0032 v 10.358382 10.358381 h -21.61594 -21.61593 l 0.52923,39.213906 0.52923,39.213915 -11.46821,-4e-5 -11.46821,-3e-5 z"
   id="path26" /><path
   style="fill:#ffffff;fill-opacity:1;stroke-width:109.486"
   d="m 164.99422,132.40677 c -5.72911,-0.7928 -13.50788,-3.2992 -19.23699,-6.19837 -7.90391,-3.9997 -10.22905,-6.05439 -13.04353,-11.52632 -6.10982,-11.87877 -2.04062,-24.833671 9.52414,-30.321511 l 5.41751,-2.570777 -4.67782,-3.66094 c -14.46991,-11.324408 -11.31654,-32.500159 6.10721,-41.011601 11.0819,-5.413471 22.99792,-7.231105 41.80543,-6.376878 29.45393,1.337781 43.89981,10.689319 43.89981,28.418532 0,7.560138 -3.06982,14.066382 -8.71387,18.468354 -2.26093,1.763377 -3.4449,3.499879 -2.63102,3.858895 10.8769,4.798019 18.12406,15.767966 16.40941,24.838766 -2.1769,11.51619 -11.54028,19.90049 -26.5729,23.79432 -10.99606,2.84825 -35.75824,4.02132 -48.28738,2.28753 z M 209.7445,109.5853 c 9.24765,-4.3883 9.18263,-12.751652 -0.12987,-16.706371 -7.26451,-3.085004 -31.29087,-4.179553 -42.1698,-1.921095 -18.30756,3.800634 -19.53893,16.395966 -2.0436,20.903376 8.40069,2.16431 38.21038,0.63433 44.34327,-2.27591 z m -5.60799,-38.431124 c 10.12696,-4.231312 10.18834,-13.750817 0.1158,-17.95939 -8.03418,-3.356897 -33.84928,-2.853533 -41.93889,0.817759 -6.05424,2.747584 -6.35666,3.180653 -5.91908,8.476172 0.38817,4.697466 1.2808,5.990107 5.64034,8.167943 6.70129,3.347671 34.49441,3.676101 42.10183,0.497516 z"
   id="path27" /><path
   style="fill:#ffffff;fill-opacity:1;stroke-width:109.486"
   d="M 35.949094,94.347048 C 26.421676,73.38334 16.271335,51.043664 13.392783,44.703325 l -5.2337302,-11.52789 12.0794652,0.429624 12.079467,0.429623 18.900404,42.131105 18.900406,42.131103 4.251212,-9.57619 c 2.338166,-5.2669 10.533691,-24.379486 18.212278,-42.472401 l 13.961065,-32.896211 11.46821,-0.02865 c 6.30752,-0.01575 11.46821,0.462513 11.46821,1.062817 0,0.600304 -9.41223,22.574871 -20.91607,48.83237 l -20.916077,47.740915 -14.228436,0.0202 c -7.82564,0.0111 -15.560227,0.34937 -17.187973,0.75167 -2.604247,0.64366 -5.039104,-3.84431 -20.28212,-37.384357 z"
   id="path28" /><path
   style="fill:#ffffff;fill-opacity:1;stroke-width:0;stroke-dasharray:none"
   d="m 1094.659,123.91155 c -6.7625,-0.3598 -9.2486,-1.05576 -9.2486,-2.58906 0,-2.34138 4.4431,-5.16064 8.1331,-5.16064 4.4977,0 18.6038,-7.64959 23.6083,-12.8026 2.7407,-2.82196 13.191,-16.910839 23.223,-31.308626 22.61,-32.449576 34.6563,-45.014443 50.7585,-52.943221 l 11.7576,-5.789484 33.7453,-0.510489 c 30.3,-0.458369 33.7453,-0.266282 33.7453,1.881436 0,2.508932 -2.7663,3.953399 -12.578,6.56792 -13.1211,3.496334 -18.1059,8.42638 -39.9094,39.47043 -25.3046,36.028933 -35.871,47.616254 -49.7546,54.561944 -5.6008,2.80194 -13.6875,5.75897 -17.9706,6.57117 -8.576,1.62627 -40.9869,2.82392 -55.5099,2.05122 z"
   id="path29" /><path
   style="fill:#ffffff;fill-opacity:1;stroke-width:0;stroke-dasharray:none"
   d="m 1094.5645,123.9091 c -7.8043,-0.41309 -9.2641,-0.90392 -8.8642,-2.98048 0.2633,-1.36728 2.47,-3.09781 4.9037,-3.84563 20.0236,-6.15275 26.2596,-11.27337 42.8833,-35.213239 31.088,-44.769944 39.2967,-53.667184 58.083,-62.955019 l 11.3206,-5.596813 33.7453,-0.510489 c 29.8024,-0.450842 33.7453,-0.240802 33.7453,1.797647 0,2.588624 -4.3346,5.364324 -8.4114,5.386257 -4.5723,0.0246 -17.3067,6.694279 -22.2835,11.671083 -2.6053,2.605302 -12.9127,16.451796 -22.9054,30.769987 -23.1822,33.217142 -34.9393,46.001706 -48.5801,52.825916 -5.6346,2.81891 -13.7491,5.78981 -18.0322,6.60201 -8.5929,1.62948 -40.9805,2.82281 -55.6044,2.04877 z"
   id="path30" /></svg>
