<?xml version="1.0" encoding="utf-8"?>
<!-- Generator: Adobe Illustrator 25.2.3, SVG Export Plug-In . SVG Version: 6.00 Build 0)  -->
<svg version="1.1" id="Layer_1" xmlns="http://www.w3.org/2000/svg" xmlns:xlink="http://www.w3.org/1999/xlink" x="0px" y="0px"
	 viewBox="0 0 1280 144" style="enable-background:new 0 0 1280 144;" xml:space="preserve">
<style type="text/css">
	.st0{fill:#6CAEDF;}
	.st1{fill:#FFFFFF;}
	.st2{fill:#0A2059;}
	.st3{fill:url(#SVGID_1_);}
	
</style>
<g>
	<g>
		<g>
			<g>
				<path d="M106.3,32.12l25.68-0.21L88.01,132.14l-35.38,0.29L7,32.94l25.68-0.21l37.51,83.73L106.3,32.12z"/>
				<path d="M240.72,103.2c0.12,14.41-10.93,23.92-27.02,27.9c-8.12,1.92-17.67,3-28.66,3.09c-22.11,0.18-38.26-3.11-48.47-12.3
					c-5.04-4.67-7.65-10.49-7.71-17.77c-0.09-10.98,5.84-18.6,17.78-22.83c-9.17-4.35-13.79-11.44-13.87-21
					c-0.18-22.4,22.86-30.72,51.4-30.96c28.53-0.24,51.71,7.71,51.9,30.11c0.08,9.56-4.43,16.73-13.52,21.23
					C234.57,84.7,240.62,92.22,240.72,103.2z M184.86,112.51c20.69-0.17,30.93-3.97,30.87-11.24c-0.06-7.56-10.37-11.19-31.05-11.02
					c-20.69,0.17-30.93,3.97-30.87,11.53C153.87,109.06,164.17,112.68,184.86,112.51z M156.34,62.24
					c0.06,7.56,9.51,11.19,28.2,11.04c17.83-0.15,26.65-3.93,26.59-11.49c-0.06-7.42-10.65-10.9-26.77-10.76
					C167.38,51.16,156.28,54.82,156.34,62.24z"/>
				<path d="M377.51,29.87l0.18,21.54l-43.09,0.36l0.65,78.32l-24.54,0.2l-0.65-78.32l-43.09,0.36l-0.18-21.54L377.51,29.87z"/>
				<path d="M469.07,128.99l-32.1-33.69L413,95.5l0.28,33.96l-24.54,0.2l-0.83-99.87l54.78-0.45c14.84-0.12,25.84,1.79,34.73,6.56
					c8.89,4.78,13.67,13.58,13.77,26c0.13,15.69-7.64,25.89-23.44,30.44l34.83,36.38L469.07,128.99z M412.64,51.13l0.19,22.83
					l28.82-0.24c17.69-0.15,24.66-3.49,24.59-11.62c-0.07-8.13-7.09-11.35-24.78-11.21L412.64,51.13z"/>
				<path d="M603.6,127.88l-10.17-21.32l-59.35,0.49l-9.81,21.48l-25.68,0.21l46.82-100.26l35.38-0.29l48.48,99.47L603.6,127.88z
					 M543.33,86.71l40.52-0.34l-20.62-43.2L543.33,86.71z"/>
				<path d="M691.37,27.27c42.51-0.35,63.91,16.16,64.19,49.55c0.27,33.24-20.85,49.97-63.36,50.32l-53.65,0.44l-0.83-99.87
					L691.37,27.27z M692.3,105.6c26.68-0.22,37.87-9.87,37.72-28.56c-0.15-18.69-11.51-28.44-38.19-28.22l-29.39,0.24l0.47,56.78
					L692.3,105.6z"/>
				<path d="M770.55,26.62l24.54-0.2l0.83,99.87l-24.54,0.2L770.55,26.62z"/>
				<path d="M907.65,25.48l23.69-0.2l0.83,99.87l-27.53,0.51l-59.08-70.28l0.58,70.48l-23.69,0.2l-0.83-99.87l31.1-0.26l55.47,65.89
					L907.65,25.48z"/>
				<path d="M990.16,65.32l75.04-0.62l0.43,52.22c-13.49,7.1-32.16,10.68-55.7,10.88c-32.81,0.27-62.48-16.18-62.78-52.56
					c-0.15-17.55,6.87-31.87,18.36-40.53c11.35-8.66,26.43-13.2,43.55-13.34c20.4-0.17,36.69,2.12,48.71,7.01l0.23,27.96
					c-11.48-8.61-29.79-13.45-48.77-13.29c-23.54,0.19-37.27,12.15-37.11,31.98c0.15,18.83,14.23,29.85,37.62,29.65
					c13.13-0.11,23.68-1.34,31.79-3.83l-0.12-14.41l-51.07,0.42L990.16,65.32z"/>
			</g>
		</g>
		<path d="M1273,9.8l-1.52,10.41c-14.42,0-28.8,7.72-37.76,20.18c-0.1,0.11-0.17,0.23-0.25,0.34l-20.53,30.42
			l-11.85,17.6c-15.49,22.94-41.41,37.31-67.36,37.31h-50.43l1.54-10.41c14.86,0,29.73-8.22,38.6-21.38l15.58-23.11l16.78-24.86
			c15.52-22.47,41.15-36.49,66.77-36.49H1273z"/>
	</g>
</g>
</svg>
